<svg width="21" height="24" viewBox="0 0 21 24" fill="none" xmlns="http://www.w3.org/2000/svg">
<path d="M9.18508 0.00359621L9.30508 0.0239962L19.5051 2.424C19.6821 2.46541 19.8424 2.55946 19.965 2.69377C20.0875 2.82807 20.1665 2.99633 20.1915 3.1764L20.1999 3.3V20.7C20.2 20.8818 20.145 21.0594 20.0421 21.2093C19.9393 21.3593 19.7935 21.4746 19.6239 21.54L19.5063 21.576L9.30628 23.976C9.18424 24.0048 9.05754 24.0077 8.9343 23.9846C8.81106 23.9616 8.694 23.913 8.59063 23.842C8.48725 23.7711 8.39984 23.6793 8.334 23.5726C8.26816 23.4659 8.22534 23.3466 8.20828 23.2224L8.19988 23.1V0.899997C8.19973 0.666811 8.29009 0.442669 8.45193 0.274787C8.61377 0.106905 8.83445 0.00839084 9.06748 -3.8147e-06L9.18508 0.00359621ZM9.99988 2.0364V21.9636L18.3999 19.9872V4.0128L9.99988 2.0364ZM6.99988 2.4V4.2H2.79988V19.8H6.99988V21.6H1.89988C1.68239 21.6 1.47227 21.5212 1.30836 21.3783C1.14446 21.2353 1.03786 21.0379 1.00828 20.8224L0.999878 20.7V3.3C0.999887 3.08251 1.07865 2.87239 1.2216 2.70848C1.36455 2.54458 1.56201 2.43798 1.77748 2.4084L1.89988 2.4H6.99988ZM12.9999 10.8C13.3181 10.8 13.6234 10.9264 13.8484 11.1515C14.0735 11.3765 14.1999 11.6817 14.1999 12C14.1999 12.3183 14.0735 12.6235 13.8484 12.8485C13.6234 13.0736 13.3181 13.2 12.9999 13.2C12.6816 13.2 12.3764 13.0736 12.1514 12.8485C11.9263 12.6235 11.7999 12.3183 11.7999 12C11.7999 11.6817 11.9263 11.3765 12.1514 11.1515C12.3764 10.9264 12.6816 10.8 12.9999 10.8Z" fill="#4D4C4D" stroke="#4D4C4D" stroke-width="0.25"/>
</svg>
