<svg width="16" height="22" viewBox="0 0 16 22" fill="none" xmlns="http://www.w3.org/2000/svg">
<path d="M2 2.75C2 2.15326 2.23705 1.58097 2.65901 1.15901C3.08097 0.737053 3.65326 0.5 4.25 0.5H11.75C12.3467 0.5 12.919 0.737053 13.341 1.15901C13.7629 1.58097 14 2.15326 14 2.75V3.5C13.9999 4.16515 13.7789 4.81143 13.3716 5.33734C12.9644 5.86324 12.394 6.23896 11.75 6.4055V8.75C12.3448 8.75 12.8765 9.008 13.3048 9.33275C13.7375 9.66125 14.1185 10.0962 14.4313 10.5522C15.038 11.4372 15.5 12.5697 15.5 13.4375C15.5 13.8996 15.3449 14.3483 15.0594 14.7117C14.7739 15.0751 14.3747 15.3321 13.9257 15.4415L14.9067 20.285C15.1257 21.395 14.12 22.133 13.553 20.285L11.96 15.5H11.726L11.6585 18.4865C11.6263 19.6362 10.6888 19.487 10.646 18.4865L10.3475 15.5H5.6525L5.354 18.4865C5.3105 19.487 4.37375 19.6362 4.3415 18.4865L4.274 15.5H4.03925L2.44625 20.285C1.87925 22.133 0.8735 21.395 1.0925 20.285L2.0735 15.4415C1.62473 15.3318 1.22575 15.0747 0.940457 14.7114C0.655163 14.3481 0.500063 13.8995 0.5 13.4375C0.5 12.5705 0.962 11.4372 1.56875 10.5522C1.8815 10.0962 2.2625 9.66125 2.69525 9.33275C3.1235 9.008 3.65525 8.75 4.25 8.75V6.4055C3.60603 6.23896 3.03563 5.86324 2.62837 5.33734C2.22112 4.81143 2.00009 4.16515 2 3.5V2.75ZM4.25 10.25C4.09475 10.25 3.8765 10.3197 3.602 10.5282C3.33125 10.7337 3.056 11.0367 2.80625 11.4005C2.288 12.1565 2 12.992 2 13.4375C2 13.748 2.252 14 2.5625 14H13.4375C13.5867 14 13.7298 13.9407 13.8352 13.8352C13.9407 13.7298 14 13.5867 14 13.4375C14 12.992 13.712 12.1565 13.1937 11.4005C12.944 11.0367 12.6687 10.733 12.3988 10.5282C12.1235 10.3197 11.9052 10.25 11.75 10.25H4.25ZM10.25 8.75V6.5H5.75V8.75H10.25ZM12.5 3.5V2.75C12.5 2.55109 12.421 2.36032 12.2803 2.21967C12.1397 2.07902 11.9489 2 11.75 2H4.25C4.05109 2 3.86032 2.07902 3.71967 2.21967C3.57902 2.36032 3.5 2.55109 3.5 2.75V3.5C3.5 3.89782 3.65804 4.27936 3.93934 4.56066C4.22064 4.84196 4.60218 5 5 5H11C11.3978 5 11.7794 4.84196 12.0607 4.56066C12.342 4.27936 12.5 3.89782 12.5 3.5Z" fill="#4D4C4D" stroke="#4D4C4D" stroke-width="0.5"/>
</svg>
