<svg width="20" height="20" viewBox="0 0 20 20" fill="none" xmlns="http://www.w3.org/2000/svg">
<path d="M14 19H17C17.5304 19 18.0391 18.7893 18.4142 18.4142C18.7893 18.0391 19 17.5304 19 17V12M14 19H3C2.46957 19 1.96086 18.7893 1.58579 18.4142C1.21071 18.0391 1 17.5304 1 17V14M14 19C13.442 17.884 11.57 16.021 7.872 14.912M19 12V7C19 6.46957 18.7893 5.96086 18.4142 5.58579C18.0391 5.21072 17.5304 5 17 5H14M19 12C15.924 11.882 10.665 12.435 7.872 14.912M1 14V7C1 6.46957 1.21071 5.96086 1.58579 5.58579C1.96086 5.21072 2.46957 5 3 5H6M1 14C3.776 14 6.047 14.364 7.872 14.912M6 5L8.586 2.414C8.96106 2.03906 9.46967 1.82843 10 1.82843C10.5303 1.82843 11.0389 2.03906 11.414 2.414L14 5M6 5H14M5.5 8C5 8 4 8.3 4 9.5C4 10.7 5 11 5.5 11C6 11 7 10.7 7 9.5C7 8.3 6 8 5.5 8Z" stroke="#4D4C4D" stroke-width="2" stroke-linecap="round" stroke-linejoin="round"/>
</svg>
