<svg width="22" height="18" viewBox="0 0 22 18" fill="none" xmlns="http://www.w3.org/2000/svg">
<path d="M2.54722 5.5067H19.4528L18.5166 2.20268H3.51089L2.54722 5.5067ZM5.43823 9.91206H16.5618L16.2864 7.70938H5.7411L5.43823 9.91206ZM3.42829 17.6214C3.09789 17.6214 2.82696 17.4977 2.6155 17.2503C2.40478 17.0021 2.31777 16.7128 2.35448 16.3824L3.53842 7.70938H1.08794C0.720827 7.70938 0.431908 7.56254 0.221185 7.26884C0.00972795 6.97515 -0.0501114 6.65393 0.041667 6.30517L1.61108 0.798471C1.6845 0.559848 1.81299 0.367113 1.99655 0.220268C2.1801 0.0734225 2.40037 0 2.65735 0H19.3427C19.5996 0 19.8199 0.0734225 20.0035 0.220268C20.187 0.367113 20.3155 0.559848 20.3889 0.798471L21.9583 6.30517C22.0501 6.65393 21.9903 6.97515 21.7788 7.26884C21.5681 7.56254 21.2792 7.70938 20.9121 7.70938H18.4891L19.6455 16.3824C19.6822 16.7128 19.5952 17.0021 19.3845 17.2503C19.173 17.4977 18.9021 17.6214 18.5717 17.6214C18.2964 17.6214 18.0534 17.5341 17.8426 17.3593C17.6312 17.1853 17.5071 16.9606 17.4704 16.6853L16.8646 12.1147H5.13536L4.52963 16.6853C4.49292 16.9606 4.36883 17.1853 4.15737 17.3593C3.94665 17.5341 3.70362 17.6214 3.42829 17.6214Z" fill="#4D4C4D"/>
</svg>
