<svg width="90" height="114" viewBox="0 0 90 114" fill="none" xmlns="http://www.w3.org/2000/svg">
<path d="M38.3677 0.76686L38.9302 0.862485L86.7427 12.1125C87.5725 12.3066 88.324 12.7475 88.8983 13.377C89.4727 14.0066 89.8429 14.7953 89.9602 15.6394L89.9996 16.2187V97.7813C89.9999 98.6335 89.7421 99.4659 89.2602 100.169C88.7782 100.872 88.0947 101.412 87.2996 101.719L86.7483 101.888L38.9358 113.138C38.3637 113.272 37.7698 113.286 37.1921 113.178C36.6144 113.07 36.0657 112.842 35.5812 112.51C35.0966 112.177 34.6868 111.747 34.3782 111.247C34.0696 110.746 33.8689 110.187 33.7889 109.605L33.7495 109.031V4.96874C33.7488 3.87568 34.1724 2.82501 34.931 2.03807C35.6896 1.25112 36.7241 0.789335 37.8164 0.749985L38.3677 0.76686ZM42.187 10.2956V103.704L81.5621 94.4401V19.56L42.187 10.2956ZM28.1245 12V20.4375H8.43702V93.5626H28.1245V102H4.21827C3.1988 102 2.21384 101.631 1.44553 100.961C0.677218 100.291 0.177533 99.3651 0.0388866 98.3551L-0.000488281 97.7813V16.2187C-0.00044529 15.1993 0.368753 14.2143 1.03883 13.446C1.7089 12.6777 2.63452 12.178 3.64451 12.0394L4.21827 12H28.1245ZM56.2496 51.375C57.7414 51.375 59.1721 51.9677 60.227 53.0226C61.2819 54.0774 61.8746 55.5082 61.8746 57C61.8746 58.4919 61.2819 59.9226 60.227 60.9775C59.1721 62.0324 57.7414 62.625 56.2496 62.625C54.7577 62.625 53.327 62.0324 52.2721 60.9775C51.2172 59.9226 50.6246 58.4919 50.6246 57C50.6246 55.5082 51.2172 54.0774 52.2721 53.0226C53.327 51.9677 54.7577 51.375 56.2496 51.375Z" fill="white"/>
</svg>
