<svg width="14" height="16" viewBox="0 0 14 16" fill="none" xmlns="http://www.w3.org/2000/svg">
<path d="M6.45673 0.00240002L6.53673 0.016L13.3367 1.616C13.4547 1.64361 13.5616 1.70631 13.6433 1.79585C13.725 1.88538 13.7776 1.99756 13.7943 2.1176L13.7999 2.2V13.8C13.8 13.9212 13.7633 14.0396 13.6948 14.1396C13.6262 14.2395 13.529 14.3164 13.4159 14.36L13.3375 14.384L6.53753 15.984C6.45617 16.0032 6.3717 16.0051 6.28954 15.9898C6.20738 15.9744 6.12934 15.942 6.06042 15.8947C5.99151 15.8474 5.93323 15.7862 5.88934 15.7151C5.84544 15.6439 5.8169 15.5644 5.80553 15.4816L5.79993 15.4V0.600001C5.79983 0.444543 5.86007 0.295115 5.96796 0.183194C6.07585 0.0712728 6.22297 0.00559643 6.37833 0L6.45673 0.00240002ZM6.99993 1.3576V14.6424L12.5999 13.3248V2.6752L6.99993 1.3576ZM4.99993 1.6V2.8H2.19992V13.2H4.99993V14.4H1.59992C1.45493 14.4 1.31485 14.3475 1.20558 14.2522C1.09631 14.1569 1.02524 14.0253 1.00552 13.8816L0.999924 13.8V2.2C0.99993 2.05501 1.05244 1.91493 1.14774 1.80566C1.24304 1.69639 1.37468 1.62532 1.51832 1.6056L1.59992 1.6H4.99993ZM8.99993 7.20001C9.2121 7.20001 9.41559 7.28429 9.56562 7.43432C9.71564 7.58435 9.79993 7.78783 9.79993 8.00001C9.79993 8.21218 9.71564 8.41566 9.56562 8.56569C9.41559 8.71572 9.2121 8.80001 8.99993 8.80001C8.78776 8.80001 8.58427 8.71572 8.43424 8.56569C8.28421 8.41566 8.19993 8.21218 8.19993 8.00001C8.19993 7.78783 8.28421 7.58435 8.43424 7.43432C8.58427 7.28429 8.78776 7.20001 8.99993 7.20001Z" fill="#7C7786" stroke="#7C7786" stroke-width="0.25"/>
</svg>
